<?xml version="1.0" encoding="utf-8"?>
<!-- Generator: Adobe Illustrator 16.0.0, SVG Export Plug-In . SVG Version: 6.00 Build 0)  -->
<!DOCTYPE svg PUBLIC "-//W3C//DTD SVG 1.1//EN" "http://www.w3.org/Graphics/SVG/1.1/DTD/svg11.dtd">
<svg version="1.1" id="Layer_1" xmlns="http://www.w3.org/2000/svg" xmlns:xlink="http://www.w3.org/1999/xlink" x="0px" y="0px"
	 width="600px" height="600px" viewBox="0 0 600 600" enable-background="new 0 0 600 600" xml:space="preserve">
<g>
	<g>
		<circle fill="#FFFFFF" cx="179.998" cy="525.001" r="15"/>
	</g>
</g>
<g>
	<g>
		<circle fill="#FFFFFF" cx="479.996" cy="525.001" r="15"/>
	</g>
</g>
<g>
	<g>
		<path fill="#FFFFFF" d="M584.995,510.001h-31.511c-6.95-34.229-37.199-59.999-73.488-59.999c-36.28,0-66.54,25.769-73.489,59.999
			h-153.06c-6.71-32.829-34.949-57.689-69.35-59.589l-49.26-332.607c-0.47-3.19-1.96-6.12-4.23-8.411L25.609,4.394
			c-5.859-5.859-15.349-5.859-21.209,0c-5.859,5.859-5.859,15.351,0,21.21l101.498,101.479l48.54,327.678
			C125.658,465.25,104.998,492.6,104.998,525c0,41.42,33.579,74.999,74.999,74.999c36.28,0,66.54-25.769,73.489-59.999h153.019
			c6.95,34.229,37.21,59.999,73.488,59.999c36.279,0,66.54-25.769,73.489-59.999h31.513c8.29,0,15-6.71,15-15
			C599.995,516.711,593.285,510.001,584.995,510.001z M179.998,570.001c-24.81,0-44.999-20.19-44.999-45s20.189-45,44.999-45
			s45,20.19,45,45S204.808,570.001,179.998,570.001z M479.996,570.001c-24.81,0-45-20.19-45-45s20.19-45,45-45
			s44.999,20.19,44.999,45S504.806,570.001,479.996,570.001z"/>
	</g>
</g>
<g>
	<g>
		<path fill="#FFFFFF" d="M593.945,161.934c-5.669-7.511-14.539-11.93-23.949-11.93H200.998c-8.7,0-16.96,3.77-22.66,10.34
			c-5.7,6.569-8.27,15.289-7.03,23.899l30,209.999c2.1,14.779,14.76,25.76,29.689,25.76h278.998c13.39,0,25.17-8.881,28.851-21.761
			l60-209.998C601.425,179.193,599.615,169.454,593.945,161.934z M509.995,390.002H230.998l-30-209.998h368.997L509.995,390.002z"/>
	</g>
</g>
</svg>
