<?xml version="1.0" encoding="utf-8"?>
<!-- Generator: Adobe Illustrator 16.0.0, SVG Export Plug-In . SVG Version: 6.00 Build 0)  -->
<!DOCTYPE svg PUBLIC "-//W3C//DTD SVG 1.1//EN" "http://www.w3.org/Graphics/SVG/1.1/DTD/svg11.dtd">
<svg version="1.1" id="Layer_1" xmlns="http://www.w3.org/2000/svg" xmlns:xlink="http://www.w3.org/1999/xlink" x="0px" y="0px"
	 width="600px" height="600px" viewBox="0 0 600 600" enable-background="new 0 0 600 600" xml:space="preserve">
<g>
	<g>
		<path fill="#FFFFFF" d="M595.612,574.39l-150-150c-0.07-0.07-0.161-0.091-0.23-0.15c40.07-45.04,64.62-104.2,64.62-169.24
			c0-140.83-114.17-255-255-255s-255,114.17-255,255s114.17,255,255,255c65.04,0,124.189-24.549,169.239-64.63
			c0.07,0.07,0.091,0.161,0.15,0.23l150,149.999c2.93,2.94,6.77,4.4,10.61,4.4c3.84,0,7.681-1.46,10.61-4.39
			C601.461,589.75,601.461,580.251,595.612,574.39z M255.001,480c-124.061,0-225-100.939-225-225s100.939-225,225-225
			s225,100.939,225,225S379.062,480,255.001,480z"/>
	</g>
</g>
</svg>
